<!-- This was copied out of the page: https://environment.data.gov.uk/catchment-planning -->
<svg pointer-events="none" class="leaflet-zoom-animated" width="643" height="715" style="transform: translate3d(-54px, -60px, 0px);" viewBox="-54 -60 643 715">
    <g>
    <path
        stroke="#3388ff"
        stroke-opacity="1"
        stroke-width="3" stroke-linecap="round" stroke-linejoin="round" fill="#3388ff" fill-opacity="0.2" fill-rule="evenodd" d="M467 431L467 430zM467 431L467 431zM467 430L467 430zM467 431L467 431zM468 430L468 430zM468 430L468 430zM467 430L467 430zM466 431L466 431zM468 430L468 430zM468 430L468 430zM467 430L467 430zM467 430L467 430zM467 431L467 431zM467 430L467 430zM467 431L467 431zM468 430L468 430zM468 430L468 430zM468 430L468 431zM467 430L467 430zM467 431L467 431zM467 431L467 431zM467 430L467 430zM467 431L467 431zM466 430L466 430zM467 431L467 431zM468 430L468 430zM467 431L467 431zM467 431L467 431zM468 430L468 430zM467 431L467 431zM467 431L467 431zM467 431L467 431zM468 431L468 431zM467 431L467 431zM467 431L467 431zM468 431L468 431zM467 431L467 431zM468 430L466 430L468 430zM468 430L468 430zM367 370L367 372L369 372L368 373L370 373L369 374L372 377L368 379L367 388L371 390L367 392L365 394L366 395L373 394L375 396L374 397L378 397L385 400L387 400L391 396L393 398L391 400L393 402L396 401L399 406L403 404L405 400L404 399L409 394L413 394L420 401L420 397L422 397L424 393L430 389L429 388L438 389L446 397L448 395L452 403L449 406L451 408L451 414L447 420L450 423L449 424L456 427L456 429L459 428L458 427L462 427L463 430L466 431L469 430L475 432L478 429L480 429L485 436L507 427L507 425L511 423L512 419L517 416L520 410L520 408L518 408L514 412L510 411L507 403L510 400L509 393L517 384L521 382L522 369L528 356L528 352L533 346L533 344L531 343L532 333L527 329L525 323L511 309L509 309L506 306L487 301L468 300L466 299L465 295L463 295L460 298L456 297L454 291L453 278L445 261L443 249L439 249L443 261L436 264L436 266L430 274L427 271L427 267L429 266L428 263L425 266L424 265L419 268L407 268L407 270L404 271L402 269L403 268L396 263L392 265L394 273L393 274L396 279L394 283L397 286L397 288L396 287L394 289L395 290L391 298L389 298L389 300L392 301L390 305L393 308L392 315L396 321L396 329L393 328L390 331L389 330L383 334L383 338L375 346L375 350L379 352L380 351L380 355L378 357L377 356L375 360L374 359L368 361L370 365L369 368L367 368L367 370zM443 260L443 260zM443 260L443 260zM442 257L442 257z">
    </path>
    <path
        stroke="#3388ff"
        stroke-opacity="1"
        stroke-width="3" stroke-linecap="round" stroke-linejoin="round" fill="#3388ff" fill-opacity="0.2" fill-rule="evenodd" d="M260 266L260 266zM291 305L285 301L286 298L284 294L286 290L281 287L281 285L275 277L272 278L260 266L251 269L249 273L253 273L256 276L258 276L260 280L260 282L259 281L256 284L258 292L257 293L259 297L257 297L254 300L248 300L249 299L245 297L244 292L240 290L235 293L239 297L235 299L234 302L231 301L229 305L227 305L226 310L229 313L231 313L229 317L232 316L234 320L236 320L238 316L251 311L257 313L263 309L263 311L267 309L268 310L271 307L273 309L275 307L275 309L279 309L282 306L286 308L288 304L291 305z">
    </path>
    <path
        stroke="#3388ff"
        stroke-opacity="1"
        stroke-width="3" stroke-linecap="round" stroke-linejoin="round" fill="#3388ff" fill-opacity="0.2" fill-rule="evenodd" d="M443 260L443 260zM443 260L443 260zM443 260L443 260zM443 260L443 260zM442 257L442 257zM389 156L385 164L382 165L377 162L375 164L378 165L378 167L375 168L376 171L368 171L368 175L366 175L362 169L359 170L359 168L353 170L351 168L347 170L344 167L341 168L335 164L327 168L322 165L316 169L316 167L312 167L308 171L309 176L305 178L307 178L308 181L307 186L311 188L311 196L314 197L314 203L312 207L314 209L313 210L315 210L314 213L316 217L313 220L315 222L319 220L322 223L321 226L319 226L315 236L317 240L318 239L323 242L322 243L327 248L326 249L328 249L337 256L334 259L332 259L332 263L330 263L330 265L332 265L331 268L333 270L332 273L330 273L330 275L327 276L327 286L324 285L322 287L318 287L318 289L315 292L313 290L314 293L312 295L311 294L309 298L310 301L307 304L308 307L307 306L304 309L306 311L305 312L308 315L310 315L309 320L311 324L309 326L312 331L311 336L313 336L313 338L315 338L316 335L320 337L318 339L318 343L322 345L324 349L324 353L322 355L329 356L332 361L335 358L343 360L345 358L345 350L348 349L348 345L350 345L353 348L354 347L355 350L361 348L365 350L366 347L374 347L383 338L382 337L384 333L386 333L389 330L390 331L393 328L396 329L396 321L392 315L393 308L390 305L392 301L389 300L389 298L391 298L395 290L394 289L396 287L397 288L397 286L394 283L396 279L393 274L393 264L396 263L399 266L401 266L404 271L407 270L407 268L419 268L421 266L425 266L428 263L429 266L427 268L427 272L429 274L432 273L433 268L437 264L439 264L440 261L443 260L441 258L442 257L439 250L443 249L441 239L427 221L423 210L424 204L428 202L430 198L422 194L421 189L414 185L406 167L401 162L389 156z">
    </path>
    <path
        stroke="#3388ff"
        stroke-opacity="1"
        stroke-width="3" stroke-linecap="round" stroke-linejoin="round" fill="#3388ff" fill-opacity="0.2" fill-rule="evenodd" d="M256 267L259 266L262 269L264 269L265 272L267 272L273 278L275 278L278 283L279 282L279 284L286 291L284 295L286 299L285 302L289 302L291 306L293 306L292 307L295 310L297 310L300 309L299 306L303 302L307 304L310 301L309 298L311 294L312 295L314 293L313 290L315 292L318 289L318 287L322 287L324 285L327 286L327 276L329 276L333 270L331 268L332 265L330 265L330 263L332 263L332 259L334 259L337 256L328 249L326 249L327 248L322 243L323 242L321 240L317 240L315 236L319 226L321 226L322 223L319 220L315 222L313 220L316 217L314 213L315 210L313 210L314 209L312 207L314 203L314 197L311 196L311 188L307 186L307 178L305 178L303 174L304 173L300 173L300 167L299 168L298 165L295 166L290 163L286 167L278 165L274 167L270 163L269 158L273 156L275 150L273 148L269 148L264 151L263 150L265 146L263 142L264 141L262 139L255 138L254 135L251 136L252 133L251 134L252 133L251 134L249 132L247 136L242 132L224 152L235 163L240 173L243 175L245 179L244 184L250 191L251 198L264 215L263 218L266 223L263 238L265 244L258 253L253 263L255 264zM260 266L260 266z">
    </path>
    <path
        stroke="#3388ff"
        stroke-opacity="1"
        stroke-width="3" stroke-linecap="round" stroke-linejoin="round" fill="#3388ff" fill-opacity="0.2" fill-rule="evenodd" d="M312 167L316 167L316 169L322 165L327 168L335 164L341 168L344 167L347 170L351 168L353 170L359 168L359 170L362 169L365 172L364 173L368 175L368 171L376 171L375 168L378 167L378 165L375 164L377 162L382 165L385 164L389 156L373 149L364 138L364 134L361 127L361 119L357 113L356 108L354 107L354 99L352 93L350 92L350 76L346 62L348 54L344 54L337 49L330 48L324 39L323 40L327 48L323 46L320 49L322 53L321 56L329 56L333 64L331 68L333 74L330 75L330 77L322 77L320 79L316 77L317 76L315 72L315 74L313 76L309 76L303 84L298 83L298 85L295 86L290 91L290 95L287 96L288 103L290 105L294 105L296 107L301 108L299 110L300 113L294 117L294 121L292 121L288 125L293 128L293 132L295 134L295 142L298 145L300 145L302 151L304 151L304 153L306 153L306 155L308 157L309 156L315 162L315 166L312 167z">
    </path>
    <path
        stroke="#3388ff"
        stroke-opacity="1"
        stroke-width="3" stroke-linecap="round" stroke-linejoin="round" fill="#3388ff" fill-opacity="0.2" fill-rule="evenodd" d="M265 445L269 449L271 449L271 451L271 447L273 445L275 445L277 449L281 449L283 451L286 450L291 455L290 456L296 458L298 462L299 461L305 465L310 464L313 459L312 458L317 457L318 454L326 454L327 451L329 451L325 443L329 441L329 435L331 435L334 432L329 427L319 423L318 416L322 412L322 406L319 405L319 403L324 402L324 398L326 396L328 398L330 392L334 388L336 388L337 391L339 389L343 391L344 390L344 392L350 392L351 389L355 389L355 387L352 384L356 376L362 374L362 370L365 371L369 367L370 364L368 362L375 359L376 356L377 357L380 354L380 352L378 352L374 346L367 347L366 350L362 348L356 350L349 345L348 348L345 349L346 354L342 360L338 360L336 358L331 361L328 356L324 356L322 354L324 354L324 350L318 342L318 338L320 336L317 335L314 338L311 335L312 330L310 328L310 316L307 313L305 313L304 310L304 308L308 306L304 302L300 304L300 308L298 310L292 308L293 307L288 304L286 308L284 306L282 306L279 309L275 309L275 307L273 309L271 307L265 311L263 311L263 309L257 313L251 311L238 316L238 326L240 328L238 328L240 332L238 334L242 336L235 343L232 342L230 346L231 347L228 350L230 352L229 353L234 354L234 358L232 358L228 362L229 367L232 368L232 382L235 383L234 386L235 385L234 386L237 391L236 394L230 394L231 399L235 399L236 402L242 402L242 400L245 403L245 407L241 411L242 414L239 415L239 419L246 424L245 427L247 429L247 433L251 437L258 436L265 445zM271 449L271 449z">
    </path>
    <path
        stroke="#3388ff"
        stroke-opacity="1"
        stroke-width="3" stroke-linecap="round" stroke-linejoin="round" fill="#3388ff" fill-opacity="0.2" fill-rule="evenodd" d="M324 38L324 38zM323 39L323 39zM323 39L323 39zM323 39L321 41L320 38L314 40L314 36L313 37L314 36L311 35L307 37L307 35L305 35L300 30L294 28L290 34L289 33L285 37L281 37L280 40L278 40L278 38L267 43L265 49L263 49L263 47L262 48L260 46L260 40L257 45L254 42L252 44L249 39L246 42L246 44L249 47L247 47L247 49L243 53L241 53L240 56L242 58L241 61L244 62L244 68L242 70L242 74L239 75L238 78L240 82L238 90L238 88L235 89L232 86L232 82L230 82L225 73L218 72L215 75L215 77L212 78L206 76L198 80L197 83L200 86L200 90L197 93L197 101L193 105L189 101L189 99L185 97L178 102L180 106L178 112L177 111L173 113L170 110L165 111L157 107L155 111L149 114L147 118L148 127L150 133L158 141L160 151L168 156L178 155L196 152L211 144L221 155L242 132L247 136L249 132L251 134L252 133L251 136L254 135L255 138L259 138L264 141L264 151L269 148L273 148L275 150L273 156L269 158L270 163L274 167L276 165L286 167L290 163L295 166L298 165L298 167L300 167L301 170L300 173L304 173L303 174L306 177L309 176L308 171L315 166L315 162L309 156L308 157L306 153L302 151L300 145L298 145L295 142L295 134L293 132L293 128L288 125L292 121L294 121L294 117L300 113L299 110L301 108L296 107L294 105L290 105L288 103L287 96L290 95L290 91L295 86L297 86L298 83L303 84L307 80L306 79L309 76L313 76L315 72L317 76L316 77L320 79L322 77L330 77L330 75L333 74L331 70L333 64L329 56L321 56L322 53L320 49L323 46L327 48L323 39z">
    </path>
    <path
        stroke="#3388ff"
        stroke-opacity="1"
        stroke-width="3" stroke-linecap="round" stroke-linejoin="round" fill="#3388ff" fill-opacity="0.2" fill-rule="evenodd" d="M351 505L351 505zM351 505L351 505zM351 505L351 505zM348 506L348 506zM347 506L347 506zM347 506L347 506zM346 449L347 450L344 453L343 458L345 462L344 465L340 467L339 470L341 476L340 479L343 482L342 487L339 490L339 494L341 494L343 500L349 502L347 505L348 506L353 505L363 513L362 515L369 513L384 505L391 504L395 498L401 496L414 495L418 493L424 493L436 497L438 499L448 501L455 493L469 490L474 485L487 486L488 476L492 472L498 472L502 469L507 468L511 463L515 463L520 456L518 451L513 448L513 444L509 440L509 438L501 435L501 433L504 430L481 437L482 442L488 447L488 449L485 452L485 454L481 456L480 459L478 459L475 456L471 456L471 458L478 465L477 470L472 467L470 469L467 468L464 471L459 470L456 473L450 471L445 474L441 472L439 474L434 473L434 471L429 470L429 468L427 468L423 472L419 470L419 468L417 468L418 465L416 465L414 461L410 461L412 467L411 468L406 469L402 465L396 465L394 467L396 471L395 472L393 470L388 473L384 469L382 469L382 473L380 475L375 472L376 467L373 466L373 464L375 462L374 461L377 460L375 458L370 457L372 453L370 451L369 452L365 450L359 450L355 448L355 446L351 446L348 447L347 450L346 449z">
    </path>
    <path
        stroke="#3388ff"
        stroke-opacity="1"
        stroke-width="3" stroke-linecap="round" stroke-linejoin="round" fill="#3388ff" fill-opacity="0.2" fill-rule="evenodd" d="M271 449L271 449zM271 446L271 446zM182 459L178 459L178 463L180 465L183 464L182 459zM93 562L89 562L82 570L82 572L85 575L91 573L96 568L96 564L93 562zM326 444L329 451L327 451L326 454L323 455L321 453L319 455L318 454L317 457L313 457L311 463L307 465L302 464L299 461L298 462L298 460L290 456L291 455L286 450L283 451L281 449L277 449L275 445L271 447L271 451L271 449L269 449L265 445L261 447L258 451L254 452L240 450L219 443L200 445L202 458L202 470L200 474L197 476L191 473L186 474L186 480L184 484L185 492L183 496L179 499L179 501L174 504L172 509L165 510L158 514L159 522L155 526L153 526L148 536L144 540L139 539L125 546L120 556L126 561L133 558L136 555L143 556L146 558L147 564L150 567L152 567L161 559L162 553L169 545L174 545L182 536L193 535L195 533L201 533L204 537L210 537L214 539L219 538L222 541L222 543L228 546L237 545L238 537L241 536L246 529L246 523L244 519L245 516L258 506L271 504L277 501L286 504L295 512L297 512L299 520L301 520L307 513L311 511L324 514L347 507L355 509L362 515L363 514L357 508L355 508L352 505L347 506L349 503L346 500L341 499L342 498L339 493L339 489L344 484L344 482L341 481L339 469L345 463L343 457L347 451L342 446L342 444L326 444zM351 505L351 505zM351 505L351 505zM347 506L347 506z">
    </path>
    <path
        stroke="#3388ff"
        stroke-opacity="1"
        stroke-width="3" stroke-linecap="round" stroke-linejoin="round" fill="#3388ff" fill-opacity="0.2" fill-rule="evenodd" d="M468 430L468 430zM468 430L468 430zM346 449L347 450L348 447L355 446L355 448L359 450L360 449L364 451L370 451L372 453L370 457L375 458L377 460L375 460L373 464L373 466L376 467L375 472L380 475L382 473L382 469L384 469L388 473L393 470L395 472L396 471L394 467L396 465L402 465L406 469L411 468L412 467L410 461L414 461L415 464L418 465L417 468L419 468L419 470L423 472L427 468L429 468L429 470L433 470L434 473L439 474L441 472L445 474L450 471L456 473L459 470L464 471L467 468L470 469L472 467L477 470L478 465L471 458L471 456L472 455L480 459L481 456L485 454L488 447L482 442L481 437L486 436L480 429L478 429L475 432L469 430L466 431L463 430L462 427L458 427L459 428L456 429L456 427L449 424L450 423L447 420L451 414L451 408L449 406L452 403L448 395L446 397L438 389L429 388L430 389L427 392L426 391L422 397L420 397L420 401L413 394L409 394L404 399L405 400L403 404L399 406L396 401L393 402L391 400L393 398L391 396L387 400L385 400L378 397L374 397L375 396L373 394L366 395L365 394L371 390L367 388L367 384L368 379L372 377L369 374L370 373L367 372L367 370L363 370L362 373L359 374L353 380L352 385L355 388L354 389L352 389L349 392L345 392L340 389L338 391L335 388L331 390L327 398L327 396L324 397L325 402L321 402L319 404L322 407L322 413L318 415L318 421L321 424L322 423L330 427L334 433L328 437L329 440L325 444L343 444L343 446L346 449zM467 431L468 430L467 431zM467 430L467 430zM468 430L468 430zM467 430L467 430zM468 430L468 430zM467 430L467 430zM467 431L467 431zM467 431L467 431zM468 430L468 430zM467 430L467 430zM467 431L467 431zM467 431L467 431zM467 431L467 431zM467 431L467 431zM468 430L468 430zM467 431L467 431zM468 431L468 431zM467 431L467 431zM467 431L467 431z">
    </path>
    <path
        stroke="#00C75D"
        stroke-opacity="1"
        stroke-width="4" stroke-linecap="round" stroke-linejoin="round" fill="none" d="M93 562L89 562L82 570L82 572L85 575L91 573L96 568L96 564L93 562zM182 459L178 459L178 463L180 465L183 464L182 459zM362 515L369 513L384 505L391 504L395 498L401 496L414 495L418 493L424 493L436 497L438 499L448 501L455 493L469 490L474 485L487 486L488 476L492 472L498 472L502 469L507 468L511 463L515 463L519 459L520 456L518 451L513 448L513 444L509 440L509 438L502 436L501 433L504 430L504 428L507 427L509 423L511 423L512 419L517 416L520 410L520 408L518 408L514 412L510 411L507 403L510 400L509 393L517 384L521 382L522 369L528 356L528 352L533 346L533 344L531 343L532 333L527 329L525 323L511 309L509 309L506 306L487 301L468 300L466 299L465 295L463 295L460 298L455 296L453 278L445 261L441 239L427 221L423 210L424 204L428 202L430 198L422 194L421 189L414 185L409 172L401 162L399 162L391 156L380 153L377 150L373 149L364 138L364 134L361 127L361 119L357 113L356 108L354 107L354 99L352 93L350 92L350 76L346 62L348 54L344 54L337 49L330 48L324 39L321 40L321 38L315 40L313 36L310 35L308 37L303 32L293 28L291 30L291 34L290 33L286 37L283 36L279 40L274 39L274 41L269 42L264 49L260 47L261 40L256 45L257 44L255 44L255 42L251 44L251 40L249 38L247 40L247 46L249 46L240 55L240 57L242 57L241 60L244 63L244 67L242 75L238 77L240 81L240 85L238 87L239 90L237 88L234 89L226 73L216 73L214 77L211 78L207 76L205 78L201 78L198 81L197 84L200 85L200 89L198 91L197 102L195 102L195 104L191 104L187 96L178 101L180 107L179 112L178 111L174 113L170 109L164 111L157 107L155 111L150 113L147 118L150 133L158 141L160 151L165 155L170 156L196 152L211 144L221 155L224 153L235 163L240 173L243 175L245 179L244 184L250 191L251 198L264 215L263 218L266 223L263 238L265 244L258 253L253 263L255 264L256 267L251 269L249 273L253 273L256 276L258 276L260 280L260 282L259 281L256 284L258 292L257 293L259 297L257 297L254 300L248 300L249 299L245 297L244 292L240 290L235 293L239 297L235 299L234 302L231 301L229 305L227 305L226 310L229 313L231 313L229 317L232 316L234 320L237 319L239 321L238 326L240 328L238 328L240 332L238 334L242 336L235 343L232 342L230 346L231 347L228 350L230 352L229 353L234 354L234 358L232 358L228 362L229 367L232 368L232 382L235 383L234 386L235 385L234 386L237 391L236 394L231 393L230 396L231 399L235 399L236 402L242 402L242 400L245 403L245 407L241 411L242 414L239 415L239 419L246 424L245 427L247 429L247 433L251 437L258 436L265 445L261 447L258 451L254 452L240 450L219 443L200 445L202 458L202 470L200 474L197 476L191 473L186 474L186 480L184 484L185 492L183 496L179 499L179 501L174 504L172 509L165 510L158 514L159 522L155 526L153 526L148 536L144 540L139 539L125 546L120 556L126 561L133 558L136 555L143 556L146 558L147 564L150 567L152 567L161 559L162 553L169 545L174 545L182 536L193 535L195 533L201 533L204 537L210 537L214 539L219 538L222 541L222 543L228 546L237 545L238 537L241 536L246 529L246 523L244 519L245 516L258 506L271 504L277 501L286 504L295 512L297 512L299 520L301 520L307 513L311 511L324 514L347 507L355 509L362 515zM300 83L300 83zM300 83L300 83zM313 76L313 76zM313 76L313 76zM313 76L313 76zM313 76L313 76zM315 73L315 73zM315 73L315 73zM225 152L242 132L225 151zM297 86L297 86zM297 86L297 86zM297 85L297 85zM297 85L297 85zM297 85L297 85zM297 85L297 85zM297 85L297 85zM297 85L297 85zM297 85L297 85zM298 84L298 84zM298 84L298 84zM299 83L299 83zM300 83L300 83zM300 83L300 83zM302 83L302 83zM302 83L302 83zM303 83L303 83zM303 84L303 84zM303 84L303 84zM304 84L304 84zM304 84L304 84zM304 83L304 83zM305 83L305 83zM306 81L306 81zM307 81L307 81zM307 81L307 81zM307 81L307 81zM307 81L307 81zM307 81L307 81zM307 81L307 81zM307 80L307 80zM307 80L307 80zM307 80L307 80zM307 80L307 80zM307 80L307 80zM307 80L307 80zM306 79L306 79zM306 79L307 79zM307 79L307 79zM307 78L307 78zM307 78L307 78zM307 78L307 78zM307 78L307 78zM307 78L307 78zM307 78L307 78zM308 77L308 77zM309 77L309 77zM309 77L309 77zM309 77L309 77zM309 77L309 77zM309 77L309 77zM309 77L309 77zM309 77L309 77zM309 77L309 77zM310 76L310 76zM310 76L310 76zM310 76L310 76zM311 76L311 76zM311 76L311 76zM312 76L312 76zM312 76L312 76zM312 76L312 76zM312 76L312 76zM312 76L312 76zM312 76L312 76zM313 76L313 76zM313 76L313 76zM313 76L313 76zM313 75L313 75zM313 75L313 75zM314 75L314 75zM314 75L314 75zM314 75L314 75zM314 75L314 75zM314 75L314 75zM314 75L314 75zM314 75L314 75zM314 75L314 75zM314 74L314 74zM314 74L314 74zM314 74L314 74zM315 73L315 73zM315 73L315 73zM315 73L315 73zM315 72L315 72zM316 72L316 72z">
    </path>
    </g>
</svg>
